<?xml version="1.0" encoding="utf-8"?>
<!-- Generator: Adobe Illustrator 18.1.1, SVG Export Plug-In . SVG Version: 6.00 Build 0)  -->
<svg version="1.1" id="Layer_1" xmlns="http://www.w3.org/2000/svg" xmlns:xlink="http://www.w3.org/1999/xlink" x="0px" y="0px"
	 viewBox="0 0 88 66.8" enable-background="new 0 0 88 66.8" xml:space="preserve">
<path fill="#FFFFFF" d="M14.9,40.6c2.8,10,13.8,13.3,18.5,14.3c-4.5-2.5-12.5-6.5-15-15.3c-2.5-9,2.3-16,4.8-20.3
	C19.9,22.5,12.2,30.5,14.9,40.6"/>
<path fill="#FFFFFF" d="M9.2,42.1c1.5,5.3,7.5,8.5,11,9.5c-3-1.8-6.8-6.3-8-10.3s0-9,1.5-12.8C10.9,31.3,7.4,36.5,9.2,42.1"/>
<path fill="#FFFFFF" d="M10.7,49.3c-1.3-1.8-3.3-3.5-4.3-6.5c-0.8-2.5,0-5.3,0.3-7.5c-1,2.3-3.3,5.3-2.5,8.3
	C4.9,46.3,8.7,47.8,10.7,49.3"/>
<path fill="#FFFFFF" d="M72.2,26c-2.8-10-13.8-13.3-18.5-14.3c4.5,2.5,12.5,6.5,15,15.3s-2.3,16-4.8,20.3C67.2,44.1,75,36,72.2,26"
	/>
<path fill="#FFFFFF" d="M78,24.8c-1.5-5.3-7.5-8.5-11-9.5c3,1.8,6.8,6.3,8,10.3s0,9-1.5,12.8C76,35.3,79.5,30,78,24.8"/>
<path fill="#FFFFFF" d="M76.5,17.5c1.3,1.8,3.3,3.5,4.3,6.5c0.8,2.5,0,5.3-0.3,7.5c1-2.3,3.3-5.3,2.5-8.3
	C82,20.3,78.5,18.8,76.5,17.5"/>
<path fill="#FFFFFF" d="M50,55.6c10.5-2.8,14.3-13,15.3-17.5c-2.5,4.3-6.8,11.5-16.3,14c-9.5,2.5-17-2-21.5-4.5
	C30.7,50.8,39.2,58.1,50,55.6"/>
<path fill="#FFFFFF" d="M51.5,61.1c5.8-1.5,9-7,10.3-10.3c-2,2.8-6.8,6.5-11,7.5c-4.3,1-9.5,0-13.5-1.3
	C40.2,59.1,45.7,62.3,51.5,61.1"/>
<path fill="#FFFFFF" d="M59,59.3c-1.8,1.3-3.5,3-7,4c-2.5,0.8-5.5,0-8-0.3c2.3,1,5.5,3.3,8.8,2.3C56,64.8,57.7,61.3,59,59.3"/>
<path fill="#FFFFFF" d="M37.2,11.3c-10.5,2.8-14.3,13-15.3,17.5c2.5-4.3,6.8-11.5,16.3-14s17,2,21.5,4.5
	C56.2,15.8,47.7,8.5,37.2,11.3"/>
<path fill="#FFFFFF" d="M35.7,5.8c-5.8,1.5-9,7-10.3,10.3c2-2.8,6.8-6.5,11-7.5c4.3-1,9.5,0,13.5,1.3C46.9,7.5,41.4,4.3,35.7,5.8"/>
<path fill="#FFFFFF" d="M27.9,7.3c1.8-1.3,3.5-3,7-4c2.5-0.8,5.5,0,8,0.3c-2.3-1-5.5-3.3-8.8-2.3C31.2,1.8,29.4,5.3,27.9,7.3"/>
</svg>
